<svg xmlns="http://www.w3.org/2000/svg" version="1.1" xmlns:xlink="http://www.w3.org/1999/xlink" xmlns:svgjs="http://svgjs.dev/svgjs" width="1440" height="800" preserveAspectRatio="none" viewBox="0 0 1440 800"><g mask="url(&quot;#SvgjsMask1376&quot;)" fill="none"><path d="M850.404,626.925C882.339,628.273,914.007,611.88,928.591,583.438C942.208,556.883,931.4,525.932,914.961,501.025C900.41,478.978,876.804,464.063,850.404,464.975C825.41,465.838,806.025,483.801,793.137,505.234C779.737,527.519,771.798,553.76,782.87,577.288C795.62,604.382,820.487,625.662,850.404,626.925" fill="rgba(146, 199, 255, 0.4)" class="triangle-float2"></path><path d="M1222.019,596.624C1278.65,594.887,1323.954,555.709,1352.826,506.959C1382.381,457.056,1402.296,394.232,1370.686,345.605C1340.715,299.499,1276.851,301.554,1222.019,305.733C1176.147,309.229,1134.248,327.823,1108.024,365.622C1076.847,410.559,1052.329,466.389,1076.532,515.435C1102.873,568.812,1162.524,598.449,1222.019,596.624" fill="rgba(146, 199, 255, 0.4)" class="triangle-float2"></path><path d="M149.984,862.288C211.269,861.625,276.145,850.834,309.632,799.502C345.905,743.901,345.583,671.057,312.156,613.7C278.953,556.727,215.926,525.489,149.984,525.565C84.182,525.641,22.209,557.585,-11.537,614.075C-46.164,672.041,-52.588,746.43,-15.761,803.023C18.539,855.732,87.101,862.968,149.984,862.288" fill="rgba(146, 199, 255, 0.4)" class="triangle-float2"></path><path d="M1421.688,454.742C1488.196,459.037,1552.869,421.363,1583.709,362.281C1612.69,306.761,1593.046,242.109,1560.66,188.503C1529.623,137.13,1481.69,92.591,1421.688,94.102C1363.61,95.564,1321.092,143.644,1294.329,195.208C1269.927,242.224,1268.93,295.906,1292.266,343.46C1319.13,398.204,1360.835,450.812,1421.688,454.742" fill="rgba(146, 199, 255, 0.4)" class="triangle-float3"></path><path d="M1295.653,111.754C1324.926,113.046,1354.163,101.25,1369.641,76.37C1385.967,50.127,1387.423,16.351,1371.471,-10.121C1355.971,-35.842,1325.678,-46.948,1295.653,-46.411C1266.648,-45.892,1238.249,-32.976,1224.388,-7.492C1211.042,17.045,1217.842,46.327,1232.171,70.304C1246.066,93.554,1268.593,110.56,1295.653,111.754" fill="rgba(146, 199, 255, 0.4)" class="triangle-float2"></path><path d="M548.796,972.152C616.886,970.04,672.266,923.755,706.375,864.786C740.541,805.72,753.645,734.303,721.05,674.356C687.111,611.938,619.689,570.292,548.796,574.976C483.949,579.261,444.72,638.678,411.92,694.782C378.668,751.66,344.171,816.031,373.327,875.114C405.028,939.354,477.194,974.372,548.796,972.152" fill="rgba(146, 199, 255, 0.4)" class="triangle-float1"></path></g><defs><mask id="SvgjsMask1376"><rect width="1440" height="800" fill="#ffffff"></rect></mask><style>
                @keyframes float1 {
                    0%{transform: translate(0, 0)}
                    50%{transform: translate(-10px, 0)}
                    100%{transform: translate(0, 0)}
                }

                .triangle-float1 {
                    animation: float1 5s infinite;
                }

                @keyframes float2 {
                    0%{transform: translate(0, 0)}
                    50%{transform: translate(-5px, -5px)}
                    100%{transform: translate(0, 0)}
                }

                .triangle-float2 {
                    animation: float2 4s infinite;
                }

                @keyframes float3 {
                    0%{transform: translate(0, 0)}
                    50%{transform: translate(0, -10px)}
                    100%{transform: translate(0, 0)}
                }

                .triangle-float3 {
                    animation: float3 6s infinite;
                }
            </style></defs></svg>